<svg width="15" height="15" viewBox="0 0 15 15" fill="none" xmlns="http://www.w3.org/2000/svg">
<path d="M4.79494 11.6428L2.17882 9.08701C2.12224 9.032 2.07726 8.9662 2.04654 8.89349C2.01583 8.82079 2 8.74266 2 8.66374C2 8.58481 2.01583 8.50668 2.04654 8.43398C2.07726 8.36128 2.12224 8.29547 2.17882 8.24046L3.04637 7.39391C3.16271 7.28116 3.31835 7.21812 3.48034 7.21812C3.64233 7.21812 3.79797 7.28116 3.91431 7.39391L5.47167 8.91655L9.83942 2.27496C9.92954 2.14094 10.0682 2.04723 10.2262 2.01362C10.3841 1.98001 10.549 2.00915 10.6858 2.09488L11.7184 2.74365C11.7859 2.78512 11.8443 2.83973 11.8902 2.90422C11.9362 2.96871 11.9687 3.04177 11.9859 3.11907C12.0031 3.19637 12.0046 3.27634 11.9903 3.35423C11.976 3.43211 11.9462 3.50634 11.9027 3.5725L6.73086 11.4393C6.62723 11.5933 6.4911 11.7226 6.33207 11.8183C6.17304 11.914 5.99497 11.9736 5.81041 11.993C5.62584 12.0124 5.43927 11.9911 5.26382 11.9306C5.08837 11.8701 4.92832 11.7719 4.79494 11.6428Z" fill="#00EA17"/>
</svg>
