<svg width="24" height="24" viewBox="0 0 24 24" fill="none" xmlns="http://www.w3.org/2000/svg">
<mask id="mask0_15_588" style="mask-type:alpha" maskUnits="userSpaceOnUse" x="0" y="0" width="24" height="24">
<rect width="24" height="24" fill="white"/>
</mask>
<g mask="url(#mask0_15_588)">
<path d="M11 2C11 2 11.5242 6.89244 13.5659 8.93414C15.6076 10.9758 20.5 11.5 20.5 11.5C20.5 11.5 15.6076 12.0242 13.5659 14.0659C11.5242 16.1076 11 21 11 21C11 21 10.4758 16.1076 8.43414 14.0659C6.39244 12.0242 1.5 11.5 1.5 11.5C1.5 11.5 6.39244 10.9758 8.43414 8.93414C10.4758 6.89244 11 2 11 2Z" fill="white"/>
<path d="M18 20C18 20 18.1379 18.7125 18.6752 18.1752C19.2125 17.6379 20.5 17.5 20.5 17.5C20.5 17.5 19.2125 17.3621 18.6752 16.8248C18.1379 16.2875 18 15 18 15C18 15 17.8621 16.2875 17.3248 16.8248C16.7875 17.3621 15.5 17.5 15.5 17.5C15.5 17.5 16.7875 17.6379 17.3248 18.1752C17.8621 18.7125 18 20 18 20Z" fill="white"/>
<path d="M20.4444 8.44444C20.4444 8.44444 20.567 7.30001 21.0446 6.82242C21.5222 6.34483 22.6666 6.22222 22.6666 6.22222C22.6666 6.22222 21.5222 6.09961 21.0446 5.62202C20.567 5.14443 20.4444 4 20.4444 4C20.4444 4 20.3218 5.14443 19.8442 5.62202C19.3666 6.09961 18.2222 6.22222 18.2222 6.22222C18.2222 6.22222 19.3666 6.34483 19.8442 6.82242C20.3218 7.30001 20.4444 8.44444 20.4444 8.44444Z" fill="white"/>
<path d="M3 2C3 2 3.19311 3.80248 3.94532 4.55468C4.69752 5.30689 6.5 5.5 6.5 5.5C6.5 5.5 4.69752 5.69311 3.94532 6.44532C3.19311 7.19752 3 9 3 9C3 9 2.80689 7.19752 2.05468 6.44532C1.30248 5.69311 -0.5 5.5 -0.5 5.5C-0.5 5.5 1.30248 5.30689 2.05468 4.55468C2.80689 3.80248 3 2 3 2Z" fill="white"/>
</g>
</svg>
