<svg width="24" height="24" viewBox="0 0 24 24" fill="none" xmlns="http://www.w3.org/2000/svg">
<mask id="mask0_15_504" style="mask-type:alpha" maskUnits="userSpaceOnUse" x="0" y="0" width="24" height="24">
<rect width="24" height="24" fill="white"/>
</mask>
<g mask="url(#mask0_15_504)">
<path d="M8.55894 13.9057H15.4413C15.4413 14.6338 14.8512 15.2239 14.1232 15.2239H9.87712C9.1491 15.2239 8.55894 14.6338 8.55894 13.9057ZM16.6746 9.10638C16.272 9.10638 15.9455 9.43266 15.9452 9.83533C15.9452 10.015 16.1186 10.3073 16.1186 10.3069L14.3504 11.9148L12.38 10.1236C12.7219 9.91011 12.8259 9.45984 12.6124 9.11798C12.3989 8.77612 11.9486 8.6721 11.6067 8.88563C11.2649 9.09916 11.1609 9.54943 11.3744 9.89129C11.4285 9.97786 11.5001 10.0521 11.5846 10.1093L9.63544 11.9148L7.84297 10.2849C7.84297 10.2849 8.05497 9.9705 8.05497 9.77106C8.05449 9.36874 7.72798 9.04297 7.32565 9.04342C6.92332 9.0439 6.59756 9.37041 6.59801 9.77274C6.59849 10.1751 6.925 10.5008 7.32733 10.5004C7.39872 10.5003 7.46971 10.4897 7.53803 10.469L8.03657 11.9147L8.58359 13.5015H15.4665L15.9861 11.9147C15.9861 11.9147 16.4352 10.5224 16.4317 10.5224C16.8114 10.656 17.2276 10.4565 17.3612 10.0767C17.4948 9.69699 17.2953 9.28082 16.9155 9.14721C16.8381 9.11998 16.7566 9.10601 16.6746 9.1059L16.6746 9.10638ZM4.14535 11.7306C4.20921 9.8332 4.96016 8.02358 6.25849 6.63844L6.25444 6.63483L4.03126 4.41166C2.14404 6.38828 1.06304 8.99846 1.00012 11.7306H4.14402H4.14535ZM6.63892 6.25846C8.02395 4.96024 9.83339 4.2093 11.7306 4.14532C11.7304 4.14369 11.7304 4.14202 11.7306 4.14038V1.00009C8.99884 1.06302 6.389 2.14386 4.41258 4.03079L6.63531 6.25441L6.63892 6.25846ZM17.3618 17.7413C15.9767 19.0398 14.1671 19.7909 12.2696 19.8549C12.2699 19.8565 12.2699 19.8582 12.2696 19.8598V23.0001C15.0024 22.9378 17.6134 21.8568 19.5903 19.969L17.3672 17.7453L17.3618 17.7413ZM11.7306 19.8549C9.833 19.791 8.02318 19.0399 6.63799 17.7413L6.63483 17.7453L4.41169 19.969C6.38865 21.8568 8.99963 22.9378 11.7325 23.0001V19.8598C11.7316 19.8583 11.731 19.8566 11.7306 19.8549ZM6.25849 17.3613C4.96027 15.9763 4.20933 14.1668 4.14535 12.2696H1.00146C1.06336 15.0022 2.14394 17.6131 4.03126 19.5903L6.25444 17.3667C6.25534 17.3646 6.25673 17.3628 6.25849 17.3613ZM19.8549 12.2696C19.791 14.167 19.0401 15.9766 17.7418 17.3617C17.7433 17.3625 17.7447 17.3636 17.7458 17.3649L19.969 19.5903C21.8568 17.6134 22.9379 15.0024 23.0001 12.2696H19.8562H19.8549ZM17.7418 6.63889C19.04 8.02392 19.7909 9.83336 19.8549 11.7306H22.9988C22.9361 8.99879 21.8556 6.38882 19.969 4.41211L17.7458 6.63528L17.7418 6.63889ZM12.2696 4.14532C14.167 4.20918 15.9766 4.96013 17.3618 6.25846L17.3654 6.25441L19.5881 4.03079C17.6116 2.14375 15.0016 1.06291 12.2696 1.00009V4.14038C12.2699 4.14202 12.2699 4.14369 12.2696 4.14532Z" fill="white"/>
</g>
</svg>
