<svg width="20" height="21" viewBox="0 0 20 21" fill="none" xmlns="http://www.w3.org/2000/svg">
<path d="M9.83384 0.371216C4.41145 0.371216 -3.05176e-05 4.79553 -3.05176e-05 10.2337C-3.05176e-05 15.6718 4.41145 20.0961 9.83375 20.0961C15.2561 20.0961 19.6676 15.6718 19.6676 10.2337C19.6676 4.79553 15.2562 0.371216 9.83384 0.371216ZM9.04286 1.13907H10.5684V2.66901H9.04286V1.13907ZM16.7016 10.2337C16.7016 14.0316 13.6207 17.1214 9.83384 17.1214C6.04696 17.1214 2.96613 14.0316 2.96613 10.2337C2.96613 6.43578 6.04704 3.34592 9.83384 3.34592C13.6207 3.34592 16.7016 6.43578 16.7016 10.2337ZM3.96101 3.26194L5.03971 4.34377L3.96101 5.4256L2.88231 4.34377L3.96101 3.26194ZM2.26288 10.9986H0.737378V9.46871H2.26288V10.9986ZM3.96101 17.2055L2.88231 16.1237L3.96101 15.0418L5.03971 16.1237L3.96101 17.2055ZM10.5684 19.3283H9.04286V17.7983H10.5684V19.3283ZM15.7067 17.2055L14.628 16.1237L15.7067 15.0418L16.7854 16.1237L15.7067 17.2055ZM15.7067 5.4256L14.628 4.34377L15.7067 3.26194L16.7854 4.34377L15.7067 5.4256ZM17.3484 10.9986V9.46871H18.8738V10.9986H17.3484Z" fill="white"/>
<path d="M4.23735 10.2337C4.23735 13.3285 6.7479 15.8465 9.83381 15.8465C12.9197 15.8465 15.4304 13.3285 15.4304 10.2337C15.4304 7.13878 12.9197 4.62085 9.83381 4.62085C6.7479 4.62085 4.23735 7.13878 4.23735 10.2337ZM12.5099 9.75785C12.7739 10.1884 12.859 10.5714 12.859 11.0264C12.859 12.1509 12.0677 12.7555 11.1682 12.7555C10.5546 12.7555 10.2052 12.4647 10.0146 12.2228L10.3399 13.3785H9.31743L9.6355 12.2493C9.43896 12.4839 9.09488 12.7781 8.50366 12.7781C7.60413 12.7781 6.80858 12.1623 6.80858 11.0377C6.80858 10.5827 6.89155 10.1884 7.15546 9.75776C7.56701 9.08621 9.83974 7.15323 9.83974 7.15323C9.83974 7.15323 12.0983 9.08629 12.5099 9.75785Z" fill="white"/>
</svg>
