<svg width="20" height="20" viewBox="0 0 20 20" fill="none" xmlns="http://www.w3.org/2000/svg">
<path fill-rule="evenodd" clip-rule="evenodd" d="M3.05176e-05 4.36879C3.05176e-05 2.00401 1.91707 0.0869751 4.28185 0.0869751H14.8933C17.2581 0.0869751 19.1751 2.00401 19.1751 4.36879V11.35C19.1751 13.7148 17.2581 15.6318 14.8933 15.6318H9.95991L4.85874 18.9587C4.29621 19.3256 3.55229 18.9145 3.56348 18.243L3.60788 15.5791C1.5633 15.2558 3.05176e-05 13.4855 3.05176e-05 11.35V4.36879ZM3.53717 6.13739C3.53717 5.67472 3.91224 5.29964 4.37492 5.29964H14.8002C15.2629 5.29964 15.638 5.67472 15.638 6.13739C15.638 6.60007 15.2629 6.97514 14.8002 6.97514H4.37492C3.91224 6.97514 3.53717 6.60007 3.53717 6.13739ZM6.14353 8.74373C5.68086 8.74373 5.30578 9.1188 5.30578 9.58147C5.30578 10.0441 5.68086 10.4192 6.14353 10.4192H13.0317C13.4943 10.4192 13.8694 10.0441 13.8694 9.58147C13.8694 9.1188 13.4943 8.74373 13.0317 8.74373H6.14353Z" fill="white"/>
</svg>
