<svg width="15" height="15" viewBox="0 0 15 15" fill="none" xmlns="http://www.w3.org/2000/svg">
<path d="M14.5 7.85944C14.5 11.7254 11.366 14.8594 7.5 14.8594C3.63401 14.8594 0.5 11.7254 0.5 7.85944C0.5 3.99344 3.63401 0.859436 7.5 0.859436C11.366 0.859436 14.5 3.99344 14.5 7.85944Z" fill="#3F7DF6"/>
<path fill-rule="evenodd" clip-rule="evenodd" d="M11.4795 3.60581C11.9833 3.95765 12.1059 4.65032 11.7532 5.15294L7.17462 11.6776L3.46346 8.71599C2.9832 8.33273 2.90533 7.63366 3.28954 7.15458C3.67375 6.67549 4.37454 6.59782 4.8548 6.98108L6.71173 8.46298L9.92853 3.87884C10.2812 3.37622 10.9756 3.25398 11.4795 3.60581Z" fill="white"/>
</svg>
