<svg width="18" height="18" viewBox="0 0 18 18" fill="none" xmlns="http://www.w3.org/2000/svg">
<mask id="mask0_239_4061" style="mask-type:alpha" maskUnits="userSpaceOnUse" x="0" y="0" width="18" height="18">
<rect width="18" height="18" fill="#D9D9D9"/>
</mask>
<g mask="url(#mask0_239_4061)">
<path d="M8 5.87451V4.87451H2C1.449 4.87451 1 5.32351 1 5.87451V7.87451H8.211C8.072 7.26351 8 6.60551 8 5.87451ZM16.959 9.87451C16.277 10.9255 15.237 11.8195 13.747 12.6755C13.518 12.8065 13.26 12.8745 13 12.8745C12.74 12.8745 12.482 12.8065 12.256 12.6775C10.766 11.8195 9.726 10.9245 9.043 9.87451H1V14.8745C1 15.4265 1.449 15.8745 2 15.8745H16C16.552 15.8745 17 15.4265 17 14.8745V9.87451H16.959ZM5.5 12.8745H3.5C3.224 12.8745 3 12.6505 3 12.3745C3 12.0985 3.224 11.8745 3.5 11.8745H5.5C5.776 11.8745 6 12.0985 6 12.3745C6 12.6505 5.776 12.8745 5.5 12.8745Z" fill="white" fill-opacity="0.7"/>
<path d="M16.697 3.4155L13.197 1.9155C13.1346 1.88878 13.0674 1.875 12.9995 1.875C12.9316 1.875 12.8644 1.88878 12.802 1.9155L9.302 3.4155C9.119 3.4935 9 3.6745 9 3.8745V5.8745C9 8.6255 10.017 10.2335 12.751 11.8085C12.828 11.8525 12.914 11.8745 13 11.8745C13.086 11.8745 13.172 11.8525 13.249 11.8085C15.983 10.2375 17 8.6295 17 5.8745V3.8745C17 3.6745 16.881 3.4935 16.697 3.4155ZM14.891 5.6875L12.891 8.1875C12.795 8.3055 12.651 8.3745 12.5 8.3745H12.479C12.4004 8.37107 12.3236 8.34919 12.255 8.31062C12.1864 8.27206 12.1278 8.21789 12.084 8.1525L11.084 6.6525C10.931 6.4225 10.993 6.1125 11.223 5.9595C11.451 5.8075 11.762 5.8675 11.916 6.0985L12.537 7.0295L14.109 5.0635C14.282 4.8485 14.597 4.8145 14.812 4.9855C15.028 5.1565 15.062 5.4715 14.891 5.6875Z" fill="white" fill-opacity="0.7"/>
</g>
</svg>
