<svg version="1.1" xmlns:svg="http://www.w3.org/2000/svg"
	 xmlns="http://www.w3.org/2000/svg" xmlns:xlink="http://www.w3.org/1999/xlink" x="0px" y="0px" viewBox="0 0 482.7 652.6"
	 style="enable-background:new 0 0 482.7 652.6;" xml:space="preserve">
<path style="fill:#fff" d="M212.3,651.5C141,642.5,78.6,604.2,39.1,545.3c-8.1-12.1-20.7-37.3-25.7-51.3c-7.7-21.7-12.1-44.6-13.3-68.5
	c-1-20.6,3.8-62.5,10.1-88c9.5-38.6,25.1-72.6,45.8-99.8C61.8,230,79.4,211,80.6,211c0.3,0,0.7,8.4,0.7,18.8
	c0.3,54.1,12.3,94.5,34.9,116.8c5.4,5.4,15.1,12.2,16,11.3c0.2-0.2-1.4-7.8-3.5-16.9c-8-34.1-10.3-52.8-10.3-81.4
	c0-43.2,8.2-78.3,27.3-117.1c20.1-40.8,49.6-77.3,91.2-113C247.7,20.2,273.9,0,275.1,0c0.3,0-1,3.3-2.8,7.4
	c-16.5,35.7-16.4,73.1,0.2,100.9c6.5,10.9,16,20.4,45.9,45.5c73.8,62.2,102.9,92.8,128.5,135.3c16.9,28.1,27.4,55.2,33.1,86
	c2.9,15.6,3.7,52.1,1.4,69.8c-10,78.7-59.3,147.4-131.1,182.7c-24.3,12-46.7,19.1-72,23C263.3,652.8,227,653.4,212.3,651.5z
	 M262.8,577c43.2-5.2,81.6-22.7,108.6-49.5c11.6-11.5,17.9-20.4,26.4-37.4c10.1-20.1,16-37.5,19.5-57.6c2.2-12.2,2.2-34.3,0-47
	c-8.8-51.8-46.5-98.3-107.9-133.2c-6.1-3.4-11.2-6.1-11.4-5.9s1.7,3.8,4.2,8.1c25,42.4,37,85.8,33.6,122c-2,21-6.8,37.6-16.2,55.5
	c-12.6,24.1-33.9,47.5-60.9,66.9c-4.7,3.4-8.8,6.1-9.2,6.1c-0.4,0,1.1-2.3,3.3-5.2c9.3-12.2,16.5-31.3,19.6-52
	c2-13.7,1.4-37.3-1.4-51.3l-1.8-9l-1.2,5c-9.9,39.9-31.5,73.8-62.2,97.6c-20.2,15.7-48.3,29.3-74.5,35.9c-4.9,1.3-9.4,2.6-9.8,3
	c-0.5,0.4,2.5,3.5,6.5,6.9c25.6,21.6,57.8,36,90.6,40.5C230.5,578.1,251.5,578.3,262.8,577L262.8,577z"/>
</svg>
