<svg width="18" height="18" viewBox="0 0 18 18" fill="none" xmlns="http://www.w3.org/2000/svg">
<mask id="mask0_239_4076" style="mask-type:alpha" maskUnits="userSpaceOnUse" x="0" y="0" width="18" height="18">
<rect width="18" height="18" fill="white"/>
</mask>
<g mask="url(#mask0_239_4076)">
<path d="M9.00696 3.25729e-06C4.03608 -0.00418034 0.00418685 4.02216 3.25729e-06 8.99304C-0.00418034 13.9639 4.02216 17.9958 8.99304 18C13.9633 17.9958 17.9923 13.9702 18 9C18 4.0319 13.9751 0.00418685 9.00696 3.25729e-06ZM8.99304 16.5023C4.8497 16.5023 1.49073 13.1433 1.49073 9C1.49073 4.85666 4.8497 1.49769 8.99304 1.49769C13.135 1.50188 16.4912 4.85807 16.4954 9C16.4954 13.1433 13.1364 16.5023 8.99304 16.5023Z" fill="white" fill-opacity="0.7"/>
<path d="M11.5746 8.56134C12.2194 8.16937 12.5679 7.3847 12.4478 6.59755C12.2985 5.38228 10.9553 4.92349 9.89554 4.82694V3H8.85076V4.81086H8.14928V3H7.10451V4.81086H5V5.97787H5.78358C6.13434 5.97787 6.30597 6.09055 6.30597 6.39637V11.4105C6.30597 11.8289 6.11193 11.9577 5.90298 11.9577H5.10448V13.1489H7.13434V15H8.18657V13.1489H8.88805V15H9.91045V13.1489H10.1343C12.2836 13.1489 13 12.0141 13 10.4688C12.9828 9.55771 12.397 8.77381 11.5746 8.56134ZM8.14924 6.0503H8.8955C9.41789 6.0503 10.4478 6.14689 10.4478 7.06438C10.4836 7.66318 10.0813 8.18793 9.52983 8.26356H8.14924V6.0503ZM9.30596 11.845V11.837H8.14924V9.42249H9.49254C9.80597 9.42249 10.9851 9.53517 10.9851 10.4366C10.9851 11.338 10.4254 11.845 9.30596 11.845Z" fill="white" fill-opacity="0.7"/>
</g>
</svg>
