<svg width="24" height="24" viewBox="0 0 24 24" fill="none" xmlns="http://www.w3.org/2000/svg">
<mask id="mask0_15_530" style="mask-type:alpha" maskUnits="userSpaceOnUse" x="0" y="0" width="24" height="24">
<rect width="24" height="24" fill="white"/>
</mask>
<g mask="url(#mask0_15_530)">
<path d="M18.0004 4H5.9996C4.897 4 4 4.897 4 5.9996V18.0005C4 19.103 4.897 20 5.9996 20H18.0005C19.103 20 20 19.103 20 18.0004V5.9996C20 4.897 19.103 4 18.0004 4ZM16.726 8.7777C13.7186 10.9259 14.1482 16.5111 14.1482 16.5111H8.9926C8.9926 13.5037 13.2889 10.4962 13.2889 10.4962C12.4296 10.9258 11.3162 11.1475 10.7111 10.9258C8.5386 10.13 8.5629 11.7851 8.5629 11.7851H7.274V7.4888H8.5629V8.3481H8.7347C9.7658 7.231 12.3796 7.5454 12.8592 7.9185C13.6326 8.52 15.8666 8.3481 16.7259 7.9185L16.726 8.7777Z" fill="white"/>
</g>
</svg>
