<svg width="36" height="36" viewBox="0 0 36 36" fill="none" xmlns="http://www.w3.org/2000/svg">
<path d="M24.6391 9.88439C24.8535 9.77505 25.06 9.65079 25.257 9.51251C26.8539 8.39142 27.3461 6.3297 26.3508 4.91876C25.3555 3.50782 23.2555 3.27814 21.6586 4.41017C20.0617 5.5422 19.2414 7.54376 18.35 9.87892L24.6391 9.88439ZM5.25781 17.1578H30.7477V30.1188C30.7477 30.6989 30.5172 31.2553 30.1069 31.6656C29.6967 32.0758 29.1403 32.3063 28.5602 32.3063H7.44531C6.86515 32.3063 6.30875 32.0758 5.89852 31.6656C5.48828 31.2553 5.25781 30.6989 5.25781 30.1188V17.1578Z" stroke="white" stroke-width="3" stroke-linecap="round" stroke-linejoin="round"/>
<path d="M21.1992 17.1578H14.8008V32.3062H21.1992V17.1578Z" stroke="white" stroke-width="3" stroke-linecap="round" stroke-linejoin="round"/>
<path d="M11.3609 9.88439C11.1476 9.77624 10.9428 9.65192 10.7484 9.51251C9.15156 8.39142 8.65391 6.3297 9.65469 4.91876C10.6555 3.50782 12.75 3.27814 14.3523 4.41017C15.9547 5.5422 16.7641 7.54376 17.6609 9.87892L11.3609 9.88439Z" stroke="white" stroke-width="3" stroke-linecap="round" stroke-linejoin="round"/>
<path d="M30.3047 9.88437H5.69531C4.78922 9.88437 4.05469 10.6189 4.05469 11.525V15.5172C4.05469 16.4233 4.78922 17.1578 5.69531 17.1578H30.3047C31.2108 17.1578 31.9453 16.4233 31.9453 15.5172V11.525C31.9453 10.6189 31.2108 9.88437 30.3047 9.88437Z" stroke="white" stroke-width="3" stroke-linecap="round" stroke-linejoin="round"/>
<path d="M21.7844 9.88437H14.2211V17.1578H21.7844V9.88437Z" stroke="white" stroke-width="3" stroke-linecap="round" stroke-linejoin="round"/>
</svg>
