<svg width="14" height="14" viewBox="0 0 14 14" fill="none" xmlns="http://www.w3.org/2000/svg">
<mask id="mask0_15_407" style="mask-type:alpha" maskUnits="userSpaceOnUse" x="0" y="0" width="14" height="14">
<rect width="14" height="14" fill="#D9D9D9"/>
</mask>
<g mask="url(#mask0_15_407)">
<path d="M13.1894 5.62496C13.1492 5.50039 13.0732 5.3904 12.9709 5.3087C12.8686 5.22701 12.7446 5.17723 12.6142 5.16556L8.98575 4.83607L7.551 1.47784C7.44517 1.23174 7.20425 1.07248 6.93656 1.07248C6.66888 1.07248 6.42793 1.23176 6.32215 1.47845L4.88737 4.8361L1.25838 5.16556C1.12815 5.17749 1.00429 5.22738 0.902147 5.30904C0.800004 5.3907 0.724076 5.50055 0.683775 5.62496C0.601004 5.87954 0.677441 6.15874 0.87915 6.33474L3.62182 8.74004L2.81306 12.3026C2.75389 12.5645 2.85554 12.8353 3.07289 12.9924C3.18969 13.0768 3.32638 13.1198 3.46421 13.1198C3.58305 13.1198 3.7009 13.0877 3.80673 13.0244L6.93656 11.1538L10.0653 13.0244C10.2942 13.1622 10.5828 13.1496 10.7997 12.9924C10.9058 12.9155 10.9871 12.8092 11.0333 12.6865C11.0795 12.5639 11.0886 12.4303 11.0595 12.3026L10.2508 8.74004L12.9934 6.33523C13.0921 6.24906 13.1632 6.1358 13.1981 6.00953C13.2329 5.88325 13.2299 5.74953 13.1894 5.62496Z" fill="#FFD600"/>
</g>
</svg>
