<svg width="26" height="26" viewBox="0 0 26 26" fill="none" xmlns="http://www.w3.org/2000/svg">
<mask id="mask0_68_2403" style="mask-type:alpha" maskUnits="userSpaceOnUse" x="0" y="0" width="26" height="26">
<rect width="26" height="26" fill="white"/>
</mask>
<g mask="url(#mask0_68_2403)">
<path d="M11.9167 2.16663C11.9167 2.16663 12.4845 7.46677 14.6964 9.67861C16.9082 11.8904 22.2083 12.4583 22.2083 12.4583C22.2083 12.4583 16.9082 13.0261 14.6964 15.238C12.4845 17.4498 11.9167 22.75 11.9167 22.75C11.9167 22.75 11.3488 17.4498 9.13698 15.238C6.92514 13.0261 1.625 12.4583 1.625 12.4583C1.625 12.4583 6.92514 11.8904 9.13698 9.67861C11.3488 7.46677 11.9167 2.16663 11.9167 2.16663Z" fill="white"/>
<path d="M19.5 21.6666C19.5 21.6666 19.6495 20.2719 20.2315 19.6898C20.8136 19.1077 22.2084 18.9583 22.2084 18.9583C22.2084 18.9583 20.8136 18.8089 20.2315 18.2268C19.6495 17.6447 19.5 16.25 19.5 16.25C19.5 16.25 19.3506 17.6447 18.7685 18.2268C18.1865 18.8089 16.7917 18.9583 16.7917 18.9583C16.7917 18.9583 18.1865 19.1077 18.7685 19.6898C19.3506 20.2719 19.5 21.6666 19.5 21.6666Z" fill="white"/>
<path d="M22.1481 9.14819C22.1481 9.14819 22.281 7.90839 22.7983 7.391C23.3157 6.87362 24.5555 6.74079 24.5555 6.74079C24.5555 6.74079 23.3157 6.60796 22.7983 6.09057C22.281 5.57318 22.1481 4.33338 22.1481 4.33338C22.1481 4.33338 22.0153 5.57318 21.4979 6.09057C20.9805 6.60796 19.7407 6.74079 19.7407 6.74079C19.7407 6.74079 20.9805 6.87362 21.4979 7.391C22.0153 7.90839 22.1481 9.14819 22.1481 9.14819Z" fill="white"/>
<path d="M3.24998 2.16663C3.24998 2.16663 3.45919 4.11931 4.27407 4.9342C5.08896 5.74909 7.04165 5.95829 7.04165 5.95829C7.04165 5.95829 5.08896 6.1675 4.27407 6.98239C3.45919 7.79727 3.24998 9.74996 3.24998 9.74996C3.24998 9.74996 3.04077 7.79727 2.22589 6.98239C1.411 6.1675 -0.541687 5.95829 -0.541687 5.95829C-0.541687 5.95829 1.411 5.74909 2.22589 4.9342C3.04077 4.11931 3.24998 2.16663 3.24998 2.16663Z" fill="white"/>
</g>
</svg>
