<svg width="26" height="26" viewBox="0 0 26 26" fill="none" xmlns="http://www.w3.org/2000/svg">
<mask id="mask0_68_2425" style="mask-type:alpha" maskUnits="userSpaceOnUse" x="0" y="0" width="26" height="26">
<rect width="26" height="26" fill="white"/>
</mask>
<g mask="url(#mask0_68_2425)">
<path d="M19.5004 4.33337H6.49958C5.30509 4.33337 4.33334 5.30512 4.33334 6.49961V19.5006C4.33334 20.695 5.30509 21.6667 6.49958 21.6667H19.5006C20.6949 21.6667 21.6667 20.695 21.6667 19.5005V6.49961C21.6667 5.30512 20.6949 4.33337 19.5004 4.33337ZM18.1198 9.50922C14.8618 11.8364 15.3272 17.8871 15.3272 17.8871H9.74199C9.74199 14.629 14.3963 11.3709 14.3963 11.3709C13.4654 11.8363 12.2592 12.0765 11.6037 11.8363C9.25016 10.9742 9.27649 12.7672 9.27649 12.7672H7.88018V8.11291H9.27649V9.04382H9.4626C10.5796 7.83362 13.4112 8.17422 13.9308 8.57842C14.7687 9.23004 17.1888 9.04382 18.1197 8.57842L18.1198 9.50922Z" fill="white"/>
</g>
</svg>
