<svg width="26" height="26" viewBox="0 0 26 26" fill="none" xmlns="http://www.w3.org/2000/svg">
<path d="M23.2362 0H2.76383C2.03082 0 1.32783 0.358708 0.809516 0.997213C0.2912 1.63572 1.26705e-05 2.50172 1.26705e-05 3.4047V25.071C-0.00089472 25.2644 0.046955 25.4535 0.136961 25.612C0.226968 25.7706 0.354695 25.8908 0.502525 25.9562C0.581909 25.9883 0.665252 26.0029 0.748755 25.9995C0.862595 26.0019 0.975348 25.9719 1.07821 25.9118C1.18107 25.8516 1.27125 25.763 1.34172 25.6529L4.8593 20.1249H23.2362C23.9692 20.1249 24.6722 19.7662 25.1905 19.1276C25.7088 18.4891 26 17.6231 26 16.7202V3.41708C26.0013 2.96893 25.9308 2.52486 25.7925 2.11035C25.6542 1.69585 25.4508 1.31905 25.194 1.00159C24.9373 0.684118 24.6321 0.432222 24.2962 0.260346C23.9602 0.0884707 23.6 -2.96294e-06 23.2362 0ZM20.7236 15.6864H5.25629C5.05638 15.6864 4.86465 15.5885 4.72329 15.4144C4.58193 15.2403 4.50252 15.0041 4.50252 14.7578C4.50252 14.5116 4.58193 14.2754 4.72329 14.1012C4.86465 13.9271 5.05638 13.8293 5.25629 13.8293H20.7437C20.9436 13.8293 21.1353 13.9271 21.2767 14.1012C21.4181 14.2754 21.4975 14.5116 21.4975 14.7578C21.4975 15.0041 21.4181 15.2403 21.2767 15.4144C21.1353 15.5885 20.9436 15.6864 20.7437 15.6864H20.7236ZM20.7236 10.9817H5.25629C5.05638 10.9817 4.86465 10.8839 4.72329 10.7097C4.58193 10.5356 4.50252 10.2994 4.50252 10.0531C4.50252 9.80688 4.58193 9.5707 4.72329 9.39656C4.86465 9.22242 5.05638 9.12459 5.25629 9.12459H20.7437C20.9436 9.12459 21.1353 9.22242 21.2767 9.39656C21.4181 9.5707 21.4975 9.80688 21.4975 10.0531C21.4975 10.2994 21.4181 10.5356 21.2767 10.7097C21.1353 10.8839 20.9436 10.9817 20.7437 10.9817H20.7236ZM20.7236 6.27083H11.2864C11.0865 6.27083 10.8948 6.17301 10.7534 5.99887C10.6121 5.82473 10.5327 5.58855 10.5327 5.34228C10.5327 5.09601 10.6121 4.85983 10.7534 4.68569C10.8948 4.51156 11.0865 4.41373 11.2864 4.41373H20.7437C20.9436 4.41373 21.1353 4.51156 21.2767 4.68569C21.4181 4.85983 21.4975 5.09601 21.4975 5.34228C21.4975 5.58855 21.4181 5.82473 21.2767 5.99887C21.1353 6.17301 20.9436 6.27083 20.7437 6.27083H20.7236Z" fill="white"/>
</svg>
