<svg width="18" height="18" viewBox="0 0 18 18" fill="none" xmlns="http://www.w3.org/2000/svg">
<mask id="mask0_239_4082" style="mask-type:alpha" maskUnits="userSpaceOnUse" x="0" y="0" width="18" height="18">
<rect width="18" height="18" fill="white"/>
</mask>
<g mask="url(#mask0_239_4082)">
<path d="M5.19677 10.875C5.66602 11.8114 6.46362 12.5487 7.44834 12.9281C7.15674 12.3633 6.94224 11.6492 6.81115 10.875H5.19677ZM5.19677 7.12501H6.81115C6.94224 6.35086 7.15674 5.63673 7.44834 5.07189C6.46362 5.45129 5.66599 6.18861 5.19677 7.12501ZM9.0189 4.78761C9.0089 4.78748 8.99974 4.78467 8.98984 4.78467C8.57359 4.79811 8.02952 5.67042 7.76046 7.12501H10.2394C9.97218 5.68032 9.43406 4.81226 9.0189 4.78761ZM8.98987 13.2153C8.99974 13.2152 9.00893 13.2125 9.01893 13.2124C9.43393 13.1877 9.97215 12.3198 10.2394 10.875H7.76049C8.02955 12.3296 8.57362 13.2019 8.98987 13.2153ZM6.65624 9.00001C6.65624 8.68814 6.66905 8.37376 6.69446 8.06251H4.85059C4.78137 8.36514 4.7373 8.67676 4.7373 9.00001C4.7373 9.32326 4.78149 9.63489 4.85059 9.93751H6.69446C6.66904 9.62566 6.65629 9.3129 6.65624 9.00001ZM10.5698 5.10501C10.8524 5.66432 11.0604 6.36648 11.1888 7.12501H12.7153C12.2624 6.2212 11.5081 5.49514 10.5698 5.10501ZM11.3437 9.00001C11.3437 9.31189 11.3309 9.62626 11.3055 9.93751H13.0615C13.1307 9.63489 13.1748 9.32326 13.1748 9.00001C13.1748 8.67676 13.1307 8.36514 13.0615 8.06251H11.3055C11.3309 8.37376 11.3437 8.68814 11.3437 9.00001Z" fill="white" fill-opacity="0.7"/>
<path d="M17 9C17 4.60594 13.3941 1 9 1C4.60594 1 1 4.60594 1 9C1 13.3941 4.60594 17 9 17C10.4703 17 11.8991 16.5677 13.1465 15.8065L17 17L15.9004 12.9885C16.5998 11.78 17 10.4058 17 9ZM9.03759 14.1521C9.02491 14.1526 9.01294 14.1562 9 14.1562C8.99525 14.1562 8.99094 14.1548 8.98622 14.1547C8.97606 14.1548 8.96619 14.1562 8.95606 14.1562C6.11294 14.1562 3.79981 11.8431 3.79981 9C3.79981 6.15687 6.11294 3.84375 8.95606 3.84375C8.96619 3.84375 8.97606 3.84522 8.98622 3.84531C8.99097 3.84522 8.99525 3.84375 9 3.84375C9.01294 3.84375 9.02491 3.84741 9.03759 3.84791C11.843 3.89209 14.1123 6.18431 14.1123 9C14.1123 11.8157 11.843 14.1079 9.03759 14.1521Z" fill="white" fill-opacity="0.7"/>
<path d="M7.63269 8.0625C7.60791 8.35912 7.59375 8.6715 7.59375 9C7.59375 9.3285 7.60791 9.64087 7.63269 9.9375H10.3673C10.3921 9.64087 10.4062 9.3285 10.4062 9C10.4062 8.6715 10.3921 8.35912 10.3673 8.0625H7.63269ZM10.5698 12.895C11.5081 12.5049 12.2624 11.7788 12.7153 10.875H11.1888C11.0604 11.6335 10.8524 12.3357 10.5698 12.895Z" fill="white" fill-opacity="0.7"/>
</g>
</svg>
