<?xml version="1.0" encoding="UTF-8"?>
<svg xmlns="http://www.w3.org/2000/svg" version="1.1" viewBox="0 0 4122 1068.2">
  <defs>
    <style>
      .cls-1 {
        fill: #00fd00;
      }

      .cls-2 {
        fill: #fcfcfc;
      }

      .cls-3 {
        fill: #fdfdfd;
      }
    </style>
  </defs>
  <!-- Generator: Adobe Illustrator 28.6.0, SVG Export Plug-In . SVG Version: 1.2.0 Build 709)  -->
  <g>
    <g id="_Шар_1" data-name="Шар_1">
      <g>
        <path class="cls-1" d="M1732.9,226.7h590.7v546.5h-121.3v-426.2h-347.4v305.2h225.2v121.1h-347V226.7h0Z"/>
        <path class="cls-3" d="M3482,346.7c1.9-.3,3.4-.8,4.9-.8,90.6.6,181.3.5,271.9,2.2,35.8.7,71,8,104.8,20.7,51.1,19.3,83.7,55.3,97.2,108,12.9,50.2,13.2,100.9,1,151.3-16.2,66.1-61.9,103.2-125.5,117.7-36.5,8.3-74.4,13.2-111.9,14.2-78.5,2.2-157.2.8-235.8.8s-3.8-.2-6.6-.3v-414h0v.2ZM3653.2,468.5v165.8c24.9,0,49,1.5,72.9-.4,38.8-3,58.3-20.1,62.8-56.5,2.3-19,1-38.8-2-57.8-3.6-23.5-18.8-40.5-42.4-44-30.1-4.4-60.7-4.9-91.2-7.1h0Z"/>
        <path class="cls-2" d="M2412.3,345.7h179.3v12.7c0,68.1,0,136.1,0,204.2,0,10.5.7,21.1,2.4,31.3,5.8,33.7,26.8,50.9,61.8,51.1,35.6.2,58-16.8,64.2-50,1.9-9.8,2.6-20.1,2.6-30.1.2-68.8,0-137.7,0-206.5v-12.2h179.3v11c0,70.4.7,140.8-.4,211.2-.4,23.5-2.8,47.5-7.8,70.4-14,63.2-54.2,103-116.2,119.5-80.3,21.4-161.2,20.7-241-1.6-74.5-20.9-113.8-70.3-121.9-147.7-1.5-15.1-2.4-30.2-2.4-45.4-.3-68.4,0-136.9,0-205.4v-12.4h0Z"/>
        <path class="cls-2" d="M640.8,532.2h-169.3c-.3-1.7-.8-3.1-.9-4.6-2.4-36.9-20-55-56.9-58-8.1-.7-16.4-.7-24.5,0-36.4,3.1-53.7,19.5-59,55.9-3.9,26.8-4.1,53.5,2.4,80,5.7,23.6,20.4,39.3,44.6,41.6,17.9,1.7,36.6,1,54.2-2.7,22.8-4.6,35.6-20.8,38.1-44.4.4-3.4.8-6.9,1.2-11.1h170.9c-.8,11.8-.9,23.7-2.3,35.5-8.3,71.7-47.2,118.2-117.1,136.2-83,21.4-166.6,20.2-249.2-2.9-65-18.2-102.9-62.6-115.3-128.9-9.2-49.6-8.9-99,2.4-148.2,14.2-62.4,51.9-103.9,113.6-120.9,84.4-23.3,169.6-22.9,253.5,1,72.1,20.5,109,71.4,113.4,148,.4,7.3,0,14.7,0,23.4h0Z"/>
        <path class="cls-2" d="M1175.9,629.7h165.9c0,24.1,16.1,33.9,36.5,35.6,22.2,1.9,44.9,1.5,67.2-.4,16.1-1.4,23.3-9.8,24-21.1.9-12-4.9-22.3-20.7-25.8-28.7-6.6-58-11.2-87.1-15-39.4-5.1-78.8-9.5-115.6-25.9-39.7-17.7-62.6-47.5-65.5-91.5-3.1-47.2,13.4-84.5,55.5-108.8,28.5-16.4,59.8-24,92.1-27.6,64.9-7.3,129.7-7.4,193.7,8,25.2,6.1,48.9,15.6,69.7,31.5,33.6,25.6,47,60.4,46.5,102.6h-170.5c-10.1-31.5-19.4-39.2-54-40.1-15-.4-30.2,1.7-45,4.3-9.1,1.6-16.1,7.4-17.3,18-1.1,11.2,3.7,19.4,13.5,23.4,11.1,4.5,22.7,8.6,34.5,10.2,35.1,5,70.5,7.1,105.3,13.3,25.1,4.5,50.2,11.3,73.6,21.3,41.7,17.7,61.3,51.9,62.3,96.9,1,45.3-15.4,81.1-56.2,103.6-28.4,15.6-59.4,22.9-91.2,26.7-68.3,8.1-136.7,8.5-204.4-5.8-12.5-2.7-24.8-6.6-36.7-11.3-52.5-21-79.5-64.1-76.2-122.1h0Z"/>
        <path class="cls-2" d="M3451.1,760.8c-57.7,0-114.4,0-171.2-.3-2.7,0-6.7-4.4-7.7-7.5-5.3-15.4-9.9-31.1-14.9-47.2-2.9-.3-5.4-.7-8-.7-40.9,0-81.7.2-122.6-.2-7.5,0-11,2.2-13,9.5-3.7,13.4-8.3,26.7-13.2,39.7-1,2.8-5,6.4-7.6,6.4-56.7.4-113.5.3-171.8.3,6.5-15.3,12.4-29.5,18.4-43.7,50.9-120.3,101.8-240.5,152.4-360.9,3.4-8.1,7.5-10.6,16.3-10.6,52.5.5,105,.4,157.6,0,7.9,0,11.5,2.4,14.6,9.6,55.8,132.5,111.9,264.9,167.8,397.3,1,2.4,1.6,5,2.8,8.3h0ZM3225.9,603c-12.5-41.4-24.6-81.7-36.8-122.3-12.8,40.9-25.3,81.2-38.1,122.3h74.9Z"/>
        <path class="cls-2" d="M1168.3,762.7h-173.7c-4.9-15.5-10-31-14.3-46.7-1.7-6.1-4.6-7.9-10.7-7.9-40.4.2-80.9.3-121.3,0-7,0-9.4,2.9-11.2,8.9-3.9,13.1-8.1,26-13,38.7-1.1,3.1-5.3,7.2-8.1,7.2-55.6.4-111.1.3-167.9.3,1.8-4.6,3.1-8.1,4.6-11.5,54.2-128.4,108.6-256.9,162.5-385.4,3.6-8.6,7.9-11.2,17.2-11.2,51.4.5,102.7.4,154,0,7.1,0,11.1,1.4,14,8.6,55,130.7,110.3,261.3,165.5,391.8.9,2.1,1.5,4.3,2.5,7.1h0ZM947,608.3c-12.2-40.5-24.2-80.2-36.3-120.3-12.4,40.2-24.7,79.9-37.2,120.3h73.5Z"/>
      </g>
    </g>
  </g>
</svg>