<?xml version="1.0" encoding="UTF-8"?>
<svg xmlns="http://www.w3.org/2000/svg" version="1.1" viewBox="0 0 4122 1068.2">
  <defs>
    <style>
      .cls-1 {
        fill: #fefefe;
      }

      .cls-2 {
        fill: #00fd00;
      }

      .cls-3 {
        fill: #fcfcfc;
      }

      .cls-4 {
        fill: #fdfdfd;
      }
    </style>
  </defs>
  <!-- Generator: Adobe Illustrator 28.6.0, SVG Export Plug-In . SVG Version: 1.2.0 Build 709)  -->
  <g>
    <g id="uuid-40a5cd61-e07f-45c5-a184-bd3f75d7acef">
      <path class="cls-1" d="M0,1067.2h1898V0c.3.2.9.3.9.5,0,1.3,0,2.6,0,3.9v1063.7c-631.5,0-1263,0-1894.5,0-1.5,0-3-.6-4.4-.9h0Z"/>
      <g>
        <path class="cls-2" d="M1774.2,288.8h619.7v573.4h-127.3v-447.2h-364.5v320.2h236.3v127.1h-364.1V288.8h0Z"/>
        <path class="cls-4" d="M3609.3,414.7c2-.3,3.6-.8,5.1-.8,95.1.6,190.2.5,285.3,2.3,37.6.7,74.5,8.4,109.9,21.7,53.6,20.2,87.8,58,102,113.3,13.5,52.7,13.9,105.9,1,158.7-17,69.3-64.9,108.3-131.7,123.5-38.3,8.7-78.1,13.8-117.4,14.9-82.4,2.3-164.9.8-247.4.8-2,0-4-.2-6.9-.3v-434.3h0ZM3788.9,542.5v173.9c26.1,0,51.4,1.6,76.5-.4,40.7-3.1,61.2-21.1,65.9-59.3,2.4-19.9,1-40.7-2.1-60.6-3.8-24.7-19.7-42.5-44.5-46.2-31.6-4.6-63.7-5.1-95.7-7.4h0Z"/>
        <path class="cls-3" d="M2487,413.7h188.1c0,4.7,0,9,0,13.3,0,71.4-.1,142.8.1,214.2,0,11,.7,22.1,2.5,32.8,6.1,35.4,28.1,53.4,64.8,53.6,37.4.2,60.8-17.6,67.4-52.5,2-10.3,2.7-21.1,2.7-31.6.2-72.2.1-144.5.1-216.7,0-4,0-8,0-12.8h188.1c0,3.7,0,7.6,0,11.5,0,73.9.7,147.7-.4,221.6-.4,24.7-2.9,49.8-8.2,73.9-14.7,66.3-56.9,108.1-121.9,125.4-84.2,22.4-169.1,21.7-252.8-1.7-78.2-21.9-119.4-73.8-127.9-155-1.6-15.8-2.5-31.7-2.5-47.6-.3-71.8-.1-143.6-.1-215.5v-13h0Z"/>
        <path class="cls-3" d="M628.5,609.3h-177.6c-.3-1.8-.8-3.3-.9-4.8-2.5-38.7-21-57.7-59.7-60.8-8.5-.7-17.2-.7-25.7,0-38.2,3.3-56.3,20.5-61.9,58.7-4.1,28.1-4.3,56.1,2.5,83.9,6,24.8,21.4,41.2,46.8,43.6,18.8,1.8,38.4,1,56.9-2.8,23.9-4.8,37.4-21.8,40-46.6.4-3.6.8-7.2,1.3-11.6h179.3c-.8,12.4-.9,24.9-2.4,37.2-8.7,75.2-49.5,124-122.9,142.9-87.1,22.4-174.8,21.2-261.4-3-68.2-19.1-108-65.7-121-135.2-9.7-52-9.3-103.9,2.5-155.5,14.9-65.5,54.5-109,119.2-126.8,88.5-24.4,177.9-24,266,1,75.6,21.5,114.4,74.9,119,155.3.4,7.7,0,15.4,0,24.5h0Z"/>
        <path class="cls-3" d="M1189.9,711.6h174.1c0,25.3,16.9,35.6,38.3,37.4,23.3,2,47.1,1.6,70.5-.4,16.9-1.5,24.4-10.3,25.2-22.1.9-12.6-5.1-23.4-21.7-27.1-30.1-6.9-60.8-11.8-91.4-15.7-41.3-5.3-82.7-10-121.3-27.2-41.6-18.6-65.7-49.8-68.7-96-3.2-49.5,14.1-88.7,58.2-114.1,29.9-17.2,62.7-25.2,96.6-29,68.1-7.7,136.1-7.8,203.2,8.4,26.4,6.4,51.3,16.4,73.1,33,35.3,26.9,49.3,63.4,48.8,107.6h-178.9c-10.6-33-20.4-41.1-56.7-42.1-15.7-.4-31.7,1.8-47.2,4.5-9.5,1.7-16.9,7.8-18.1,18.9-1.2,11.8,3.9,20.4,14.2,24.6,11.6,4.7,23.8,9,36.2,10.7,36.8,5.2,74,7.5,110.5,14,26.3,4.7,52.7,11.9,77.2,22.3,43.8,18.6,64.3,54.5,65.4,101.7,1.1,47.5-16.2,85.1-59,108.7-29.8,16.4-62.3,24-95.7,28-71.7,8.5-143.4,8.9-214.4-6.1-13.1-2.8-26-6.9-38.5-11.9-55.1-22-83.4-67.3-79.9-128.1h0Z"/>
        <path class="cls-3" d="M3576.9,849.2c-60.5,0-120,.1-179.6-.3-2.8,0-7-4.6-8.1-7.9-5.6-16.2-10.4-32.6-15.6-49.5-3-.3-5.7-.7-8.4-.7-42.9,0-85.7.2-128.6-.2-7.9,0-11.5,2.3-13.6,10-3.9,14.1-8.7,28-13.9,41.7-1.1,2.9-5.2,6.7-8,6.7-59.5.4-119.1.3-180.2.3,6.8-16.1,13-31,19.3-45.9,53.4-126.2,106.8-252.3,159.9-378.6,3.6-8.5,7.9-11.1,17.1-11.1,55.1.5,110.2.4,165.4,0,8.3,0,12.1,2.5,15.3,10.1,58.5,139,117.4,277.9,176.1,416.8,1.1,2.5,1.7,5.2,2.9,8.7h0ZM3340.6,683.6c-13.1-43.4-25.8-85.7-38.6-128.3-13.4,42.9-26.5,85.2-40,128.3h78.6Z"/>
        <path class="cls-3" d="M1181.9,851.2h-182.2c-5.1-16.3-10.5-32.5-15-49-1.8-6.4-4.8-8.3-11.2-8.3-42.4.2-84.9.3-127.3,0-7.3,0-9.9,3-11.8,9.3-4.1,13.7-8.5,27.3-13.6,40.6-1.2,3.2-5.6,7.6-8.5,7.6-58.3.4-116.6.3-176.2.3,1.9-4.8,3.3-8.5,4.8-12.1,56.9-134.7,113.9-269.5,170.5-404.3,3.8-9,8.3-11.8,18-11.7,53.9.5,107.8.4,161.6.1,7.4,0,11.6,1.5,14.7,9,57.7,137.1,115.7,274.1,173.6,411.1.9,2.2,1.6,4.5,2.6,7.4h0ZM949.7,689.2c-12.8-42.5-25.4-84.1-38.1-126.2-13,42.2-25.9,83.8-39,126.2h77.1Z"/>
      </g>
    </g>
  </g>
</svg>