<svg width="177" height="48" viewBox="0 0 177 48" fill="none" xmlns="http://www.w3.org/2000/svg">
<path d="M51.2359 43.378C50.6059 43.378 49.9759 43.288 49.3459 43.108C48.7339 42.946 48.1489 42.685 47.5909 42.325C46.6189 41.695 45.8629 40.885 45.3229 39.895C44.7829 38.887 44.5129 37.789 44.5129 36.601H49.0759C49.0759 37.141 49.1929 37.564 49.4269 37.87C49.6609 38.158 49.8679 38.356 50.0479 38.464C50.3719 38.68 50.7229 38.797 51.1009 38.815C51.4789 38.833 51.8479 38.761 52.2079 38.599C52.4599 38.491 52.6579 38.356 52.8019 38.194C52.9639 38.032 53.0809 37.879 53.1529 37.735C53.2429 37.573 53.2969 37.42 53.3149 37.276C53.3329 37.132 53.3419 37.015 53.3419 36.925C53.3419 36.835 53.3329 36.718 53.3149 36.574C53.2969 36.43 53.2429 36.277 53.1529 36.115C53.0809 35.953 52.9639 35.8 52.8019 35.656C52.6579 35.494 52.4599 35.35 52.2079 35.224C52.0099 35.134 51.7939 35.053 51.5599 34.981C51.3439 34.909 51.1099 34.828 50.8579 34.738C50.4079 34.594 49.9399 34.432 49.4539 34.252C48.9679 34.072 48.4819 33.829 47.9959 33.523C47.3659 33.127 46.8349 32.632 46.4029 32.038C45.9709 31.444 45.6559 30.805 45.4579 30.121C45.2779 29.437 45.2149 28.735 45.2689 28.015C45.3409 27.277 45.5479 26.575 45.8899 25.909C46.2139 25.297 46.6189 24.766 47.1049 24.316C47.5909 23.866 48.1309 23.515 48.7249 23.263C49.3189 22.993 49.9579 22.831 50.6419 22.777C51.3259 22.723 52.0189 22.786 52.7209 22.966C53.4049 23.128 54.0259 23.389 54.5839 23.749C55.1419 24.091 55.6189 24.514 56.0149 25.018C56.4289 25.504 56.7439 26.053 56.9599 26.665C57.1759 27.277 57.2839 27.916 57.2839 28.582H52.7209C52.7209 28.168 52.5859 27.88 52.3159 27.718C52.0639 27.556 51.8389 27.448 51.6409 27.394C51.6049 27.394 51.5149 27.385 51.3709 27.367C51.2449 27.331 51.0919 27.331 50.9119 27.367C50.7499 27.385 50.5789 27.448 50.3989 27.556C50.2189 27.646 50.0749 27.799 49.9669 28.015C49.8229 28.303 49.7959 28.609 49.8859 28.933C49.9759 29.239 50.1559 29.482 50.4259 29.662C50.6779 29.806 50.9569 29.941 51.2629 30.067C51.5689 30.175 51.8929 30.283 52.2349 30.391C52.5409 30.481 52.8469 30.58 53.1529 30.688C53.4769 30.796 53.8009 30.922 54.1249 31.066C55.3129 31.606 56.2399 32.398 56.9059 33.442C57.5899 34.486 57.9319 35.647 57.9319 36.925C57.9319 38.185 57.5899 39.337 56.9059 40.381C56.2399 41.425 55.3129 42.217 54.1249 42.757C53.6569 42.973 53.1799 43.126 52.6939 43.216C52.2079 43.324 51.7219 43.378 51.2359 43.378Z" fill="#0D2342"/>
<path d="M72.0559 43H60.2569V23.155H64.8199V38.437H72.0559V43Z" fill="#0D2342"/>
<path d="M82.8791 23.155C84.2471 23.155 85.5341 23.416 86.7401 23.938C87.9461 24.46 88.9991 25.171 89.8991 26.071C90.7991 26.953 91.5101 27.997 92.0321 29.203C92.5541 30.409 92.8151 31.696 92.8151 33.064C92.8151 34.432 92.5541 35.719 92.0321 36.925C91.5101 38.131 90.7991 39.184 89.8991 40.084C88.9991 40.966 87.9461 41.668 86.7401 42.19C85.5341 42.712 84.2471 42.973 82.8791 42.973C81.5111 42.973 80.2241 42.712 79.0181 42.19C77.8121 41.668 76.7591 40.966 75.8591 40.084C74.9771 39.184 74.2751 38.131 73.7531 36.925C73.2311 35.719 72.9701 34.432 72.9701 33.064C72.9701 31.696 73.2311 30.409 73.7531 29.203C74.2751 27.997 74.9771 26.953 75.8591 26.071C76.7591 25.171 77.8121 24.46 79.0181 23.938C80.2241 23.416 81.5111 23.155 82.8791 23.155ZM82.8791 38.41C83.6171 38.41 84.3101 38.275 84.9581 38.005C85.6061 37.717 86.1731 37.33 86.6591 36.844C87.1451 36.358 87.5231 35.791 87.7931 35.143C88.0811 34.495 88.2251 33.802 88.2251 33.064C88.2251 32.326 88.0811 31.633 87.7931 30.985C87.5231 30.337 87.1451 29.77 86.6591 29.284C86.1731 28.798 85.6061 28.42 84.9581 28.15C84.3101 27.862 83.6171 27.718 82.8791 27.718C82.1411 27.718 81.4481 27.862 80.8001 28.15C80.1521 28.42 79.5851 28.798 79.0991 29.284C78.6131 29.77 78.2261 30.337 77.9381 30.985C77.6681 31.633 77.5331 32.326 77.5331 33.064C77.5331 33.802 77.6681 34.495 77.9381 35.143C78.2261 35.791 78.6131 36.358 79.0991 36.844C79.5851 37.33 80.1521 37.717 80.8001 38.005C81.4481 38.275 82.1411 38.41 82.8791 38.41Z" fill="#0D2342"/>
<path d="M105.947 23.101V27.691H102.14V43H97.5766V27.691H93.7966V23.101H105.947Z" fill="#0D2342"/>
<path d="M116.859 23.155C118.227 23.155 119.514 23.416 120.72 23.938C121.926 24.46 122.979 25.171 123.879 26.071C124.779 26.953 125.49 27.997 126.012 29.203C126.534 30.409 126.795 31.696 126.795 33.064C126.795 34.432 126.534 35.719 126.012 36.925C125.49 38.131 124.779 39.184 123.879 40.084C122.979 40.966 121.926 41.668 120.72 42.19C119.514 42.712 118.227 42.973 116.859 42.973C115.491 42.973 114.204 42.712 112.998 42.19C111.792 41.668 110.739 40.966 109.839 40.084C108.957 39.184 108.255 38.131 107.733 36.925C107.211 35.719 106.95 34.432 106.95 33.064C106.95 31.696 107.211 30.409 107.733 29.203C108.255 27.997 108.957 26.953 109.839 26.071C110.739 25.171 111.792 24.46 112.998 23.938C114.204 23.416 115.491 23.155 116.859 23.155ZM116.859 38.41C117.597 38.41 118.29 38.275 118.938 38.005C119.586 37.717 120.153 37.33 120.639 36.844C121.125 36.358 121.503 35.791 121.773 35.143C122.061 34.495 122.205 33.802 122.205 33.064C122.205 32.326 122.061 31.633 121.773 30.985C121.503 30.337 121.125 29.77 120.639 29.284C120.153 28.798 119.586 28.42 118.938 28.15C118.29 27.862 117.597 27.718 116.859 27.718C116.121 27.718 115.428 27.862 114.78 28.15C114.132 28.42 113.565 28.798 113.079 29.284C112.593 29.77 112.206 30.337 111.918 30.985C111.648 31.633 111.513 32.326 111.513 33.064C111.513 33.802 111.648 34.495 111.918 35.143C112.206 35.791 112.593 36.358 113.079 36.844C113.565 37.33 114.132 37.717 114.78 38.005C115.428 38.275 116.121 38.41 116.859 38.41Z" fill="#0D2342"/>
<path d="M141.15 23.1011V27.6911H137.343V43.0001H132.78V27.6911H129V23.1011H141.15Z" fill="#F33B68"/>
<path d="M152.062 23.1551C153.43 23.1551 154.717 23.4161 155.923 23.9381C157.129 24.4601 158.182 25.1711 159.082 26.0711C159.982 26.9531 160.693 27.9971 161.215 29.2031C161.737 30.4091 161.998 31.6961 161.998 33.0641C161.998 34.4321 161.737 35.7191 161.215 36.9251C160.693 38.1311 159.982 39.1841 159.082 40.0841C158.182 40.9661 157.129 41.6681 155.923 42.1901C154.717 42.7121 153.43 42.9731 152.062 42.9731C150.694 42.9731 149.407 42.7121 148.201 42.1901C146.995 41.6681 145.942 40.9661 145.042 40.0841C144.16 39.1841 143.458 38.1311 142.936 36.9251C142.414 35.7191 142.153 34.4321 142.153 33.0641C142.153 31.6961 142.414 30.4091 142.936 29.2031C143.458 27.9971 144.16 26.9531 145.042 26.0711C145.942 25.1711 146.995 24.4601 148.201 23.9381C149.407 23.4161 150.694 23.1551 152.062 23.1551ZM152.062 38.4101C152.8 38.4101 153.493 38.2751 154.141 38.0051C154.789 37.7171 155.356 37.3301 155.842 36.8441C156.328 36.3581 156.706 35.7911 156.976 35.1431C157.264 34.4951 157.408 33.8021 157.408 33.0641C157.408 32.3261 157.264 31.6331 156.976 30.9851C156.706 30.3371 156.328 29.7701 155.842 29.2841C155.356 28.7981 154.789 28.4201 154.141 28.1501C153.493 27.8621 152.8 27.7181 152.062 27.7181C151.324 27.7181 150.631 27.8621 149.983 28.1501C149.335 28.4201 148.768 28.7981 148.282 29.2841C147.796 29.7701 147.409 30.3371 147.121 30.9851C146.851 31.6331 146.716 32.3261 146.716 33.0641C146.716 33.8021 146.851 34.4951 147.121 35.1431C147.409 35.7911 147.796 36.3581 148.282 36.8441C148.768 37.3301 149.335 37.7171 149.983 38.0051C150.631 38.2751 151.324 38.4101 152.062 38.4101Z" fill="#F33B68"/>
<path d="M176.507 31.5251C176.507 32.6591 176.291 33.7301 175.859 34.7381C175.445 35.7281 174.86 36.6011 174.104 37.3571C173.366 38.1131 172.502 38.7161 171.512 39.1661C170.522 39.5981 169.46 39.8231 168.326 39.8411V43.0001H163.763V23.1821H168.326C169.46 23.2001 170.522 23.4341 171.512 23.8841C172.502 24.3341 173.366 24.9371 174.104 25.6931C174.86 26.4491 175.445 27.3311 175.859 28.3391C176.291 29.3291 176.507 30.3911 176.507 31.5251ZM168.326 35.2781C168.83 35.2601 169.298 35.1521 169.73 34.9541C170.18 34.7381 170.567 34.4681 170.891 34.1441C171.215 33.8021 171.467 33.4061 171.647 32.9561C171.845 32.5061 171.944 32.0291 171.944 31.5251C171.944 31.0211 171.845 30.5441 171.647 30.0941C171.467 29.6441 171.215 29.2571 170.891 28.9331C170.567 28.5911 170.18 28.3211 169.73 28.1231C169.298 27.9071 168.83 27.7901 168.326 27.7721V35.2781Z" fill="#F33B68"/>
<path d="M36.9829 33.1771C36.9829 38.2802 32.8434 42.4171 27.7371 42.4171C22.6308 42.4171 18.4913 38.2802 18.4913 33.1771C18.4913 28.074 22.6308 23.9371 27.7371 23.9371C32.8434 23.9371 36.9829 28.074 36.9829 33.1771Z" fill="#E11B4C" fill-opacity="0.89"/>
<path d="M27.7373 33.1771C27.7373 40.8318 21.5281 47.0371 13.8687 47.0371C6.20921 47.0371 0 40.8318 0 33.1771C0 25.5225 6.20921 19.3171 13.8687 19.3171C21.5281 19.3171 27.7373 25.5225 27.7373 33.1771Z" fill="#FA1C52" fill-opacity="0.78"/>
<path d="M28.0635 7.48194C28.0852 7.47682 28.108 7.54893 28.0873 7.55728C26.3927 8.24175 21.6239 10.8973 20.151 19.4702C20.1276 19.6064 19.9805 19.6885 19.8566 19.6273C19.3626 19.3833 18.9926 19.1642 18.4999 19C18.0673 18.8558 17.1443 18.6435 16.7207 18.5488C16.6033 18.5225 16.5353 18.4023 16.5792 18.2903C17.1164 16.9234 20.4328 9.28013 28.0635 7.48194Z" fill="#0D2342"/>
<mask id="mask0_716:14152" style="mask-type:alpha" maskUnits="userSpaceOnUse" x="6" y="1" width="15" height="11">
<path d="M19.4139 11.4328C19.7939 11.3846 20.0815 11.0656 20.0902 10.6826C20.199 5.88536 16.3236 1.94609 11.5252 1.97659L6.07343 2.01125C6.42751 7.98042 11.7584 12.4042 17.6905 11.6515L19.4139 11.4328Z" fill="#3CE89F"/>
</mask>
<g mask="url(#mask0_716:14152)">
<path d="M19.0024 12.3509C20.2203 12.2814 21.1621 11.2559 21.1278 10.0365C21.0021 5.55603 17.329 1.99176 12.8468 2.00078L6.0821 2.01438L6.09231 2.16886C6.49041 8.19234 11.6685 12.7696 17.6953 12.4256L19.0024 12.3509Z" fill="#3CE89F"/>
<path d="M6.11441 2.01611C14.5 5.00012 11 11.4999 20.9734 10.9315L18.0016 16.1321L3.51409 9.81708L6.11441 2.01611Z" fill="#20BC7A"/>
</g>
<path d="M26.6416 9.33177C26.6955 9.238 26.8619 9.30717 26.8443 9.41388C26.605 10.8708 26.3038 14.9933 28.5006 22.3985C28.5378 22.5237 28.4453 22.6534 28.3146 22.6534C27.6208 22.6534 26.9301 22.746 26.2609 22.9288L26.2168 22.9409C26.1013 22.9724 25.9851 22.8987 25.9693 22.7801C25.7943 21.4669 24.9876 14.5455 26.6416 9.33177Z" fill="#6D7684"/>
</svg>
