<svg width="24" height="24" viewBox="0 0 24 24" fill="none" xmlns="http://www.w3.org/2000/svg">
<mask id="mask0_15_622" style="mask-type:alpha" maskUnits="userSpaceOnUse" x="0" y="0" width="24" height="24">
<rect width="24" height="24" fill="white"/>
</mask>
<g mask="url(#mask0_15_622)">
<path d="M16.0667 3H4.86667C4.37182 3.00074 3.89746 3.19764 3.54755 3.54755C3.19764 3.89746 3.00074 4.37182 3 4.86667V18.8667C3.00074 19.6091 3.29598 20.3208 3.82092 20.8458C4.34586 21.3707 5.05762 21.6659 5.8 21.6667H17C17.2476 21.6667 17.4849 21.5684 17.66 21.3933C17.835 21.2183 17.9333 20.9809 17.9333 20.7334V4.86667C17.9326 4.37182 17.7357 3.89746 17.3858 3.54755C17.0359 3.19764 16.5615 3.00074 16.0667 3ZM7.2 6.73334H10C10.2475 6.73334 10.4849 6.83167 10.66 7.0067C10.835 7.18174 10.9333 7.41914 10.9333 7.66667C10.9333 7.91421 10.835 8.1516 10.66 8.32664C10.4849 8.50167 10.2475 8.60001 10 8.60001H7.2C6.95247 8.60001 6.71507 8.50167 6.54004 8.32664C6.365 8.1516 6.26667 7.91421 6.26667 7.66667C6.26667 7.41914 6.365 7.18174 6.54004 7.0067C6.71507 6.83167 6.95247 6.73334 7.2 6.73334ZM13.7333 18.4H7.2C6.95247 18.4 6.71507 18.3017 6.54004 18.1266C6.365 17.9516 6.26667 17.7142 6.26667 17.4667C6.26667 17.2191 6.365 16.9817 6.54004 16.8067C6.71507 16.6317 6.95247 16.5333 7.2 16.5333H13.7333C13.9809 16.5333 14.2183 16.6317 14.3933 16.8067C14.5683 16.9817 14.6667 17.2191 14.6667 17.4667C14.6667 17.7142 14.5683 17.9516 14.3933 18.1266C14.2183 18.3017 13.9809 18.4 13.7333 18.4ZM13.7333 15.1333H7.2C6.95247 15.1333 6.71507 15.035 6.54004 14.86C6.365 14.6849 6.26667 14.4475 6.26667 14.2C6.26667 13.9525 6.365 13.7151 6.54004 13.54C6.71507 13.365 6.95247 13.2667 7.2 13.2667H13.7333C13.9809 13.2667 14.2183 13.365 14.3933 13.54C14.5683 13.7151 14.6667 13.9525 14.6667 14.2C14.6667 14.4475 14.5683 14.6849 14.3933 14.86C14.2183 15.035 13.9809 15.1333 13.7333 15.1333ZM13.7333 11.8667H7.2C6.95247 11.8667 6.71507 11.7683 6.54004 11.5933C6.365 11.4183 6.26667 11.1809 6.26667 10.9333C6.26667 10.6858 6.365 10.4484 6.54004 10.2734C6.71507 10.0983 6.95247 10 7.2 10H13.7333C13.9809 10 14.2183 10.0983 14.3933 10.2734C14.5683 10.4484 14.6667 10.6858 14.6667 10.9333C14.6667 11.1809 14.5683 11.4183 14.3933 11.5933C14.2183 11.7683 13.9809 11.8667 13.7333 11.8667Z" fill="white"/>
<path d="M18.8667 21.6667H17C16.7524 21.6667 16.5151 21.5684 16.34 21.3933C16.165 21.2183 16.0667 20.9809 16.0667 20.7334V9.53334C16.0667 9.2858 16.165 9.04841 16.34 8.87337C16.5151 8.69834 16.7524 8.60001 17 8.60001H20.7333C20.9809 8.60001 21.2183 8.69834 21.3933 8.87337C21.5683 9.04841 21.6667 9.2858 21.6667 9.53334V18.8667C21.6659 19.6091 21.3707 20.3208 20.8457 20.8458C20.3208 21.3707 19.609 21.6659 18.8667 21.6667ZM17.9333 19.8H18.8667C19.1142 19.8 19.3516 19.7017 19.5266 19.5267C19.7017 19.3516 19.8 19.1142 19.8 18.8667V10.4667H17.9333V19.8Z" fill="white"/>
</g>
</svg>
