<svg width="18" height="18" viewBox="0 0 18 18" fill="none" xmlns="http://www.w3.org/2000/svg">
<mask id="mask0_217_4059" style="mask-type:alpha" maskUnits="userSpaceOnUse" x="0" y="0" width="18" height="18">
<rect width="18" height="18" fill="#D9D9D9"/>
</mask>
<g mask="url(#mask0_217_4059)">
<path d="M5.8 5.79993H12.2V12.1999H5.8V5.79993Z" fill="white" fill-opacity="0.7"/>
<path d="M16.2 9.8C16.68 9.8 17 9.48 17 9C17 8.6 16.68 8.2 16.2 8.2H15.4V6.6H16.2C16.68 6.6 17 6.28 17 5.8C17 5.4 16.68 5 16.2 5H15.4V4.2C15.4 3.32 14.68 2.6 13.8 2.6H13V1.8C13 1.4 12.68 1 12.2 1C11.8 1 11.4 1.32 11.4 1.8V2.6H9.8V1.8C9.8 1.4 9.48 1 9 1C8.52 1 8.2 1.32 8.2 1.8V2.6H6.6V1.8C6.6 1.4 6.28 1 5.8 1C5.32 1 5 1.32 5 1.8V2.6H4.2C3.32 2.6 2.6 3.32 2.6 4.2V5H1.8C1.32 5 1 5.32 1 5.8C1 6.2 1.32 6.6 1.8 6.6H2.6V8.2H1.8C1.32 8.2 1 8.52 1 9C1 9.4 1.32 9.8 1.8 9.8H2.6V11.4H1.8C1.32 11.4 1 11.72 1 12.2C1 12.6 1.32 13 1.8 13H2.6V13.8C2.6 14.68 3.32 15.4 4.2 15.4H5V16.2C5 16.6 5.32 17 5.8 17C6.28 17 6.6 16.68 6.6 16.2V15.4H8.2V16.2C8.2 16.6 8.52 17 9 17C9.48 17 9.8 16.68 9.8 16.2V15.4H11.4V16.2C11.4 16.6 11.72 17 12.2 17C12.6 17 13 16.68 13 16.2V15.4H13.8C14.68 15.4 15.4 14.68 15.4 13.8V13H16.2C16.68 13 17 12.68 17 12.2C17 11.8 16.68 11.4 16.2 11.4H15.4V9.8H16.2ZM13.8 13.8H4.2V4.2H13.8V13.8Z" fill="white" fill-opacity="0.7"/>
</g>
</svg>
