<svg width="26" height="26" viewBox="0 0 26 26" fill="none" xmlns="http://www.w3.org/2000/svg">
<path d="M18.2731 12.822H7.72607C7.32927 12.8225 6.94885 12.9803 6.66827 13.2608C6.38769 13.5414 6.22988 13.9218 6.22945 14.3186V23.1221C6.23009 23.5188 6.38798 23.8991 6.66851 24.1796C6.94904 24.4602 7.32934 24.6181 7.72607 24.6187H18.2731C18.6701 24.6183 19.0508 24.4604 19.3315 24.1796C19.6122 23.8989 19.7701 23.5183 19.7706 23.1213V14.3186C19.7701 13.9217 19.6122 13.5412 19.3315 13.2606C19.0507 12.98 18.6701 12.8222 18.2731 12.822ZM18.8947 23.1221C18.8945 23.2869 18.8289 23.4448 18.7124 23.5614C18.5959 23.6779 18.4379 23.7434 18.2731 23.7436H7.72607C7.56143 23.7432 7.40367 23.6776 7.28732 23.5611C7.17098 23.4446 7.10554 23.2867 7.10532 23.1221V14.3186C7.10554 14.1541 7.17101 13.9963 7.28737 13.8799C7.40374 13.7636 7.5615 13.6981 7.72607 13.6979H11.7398V15.7803H14.2586V13.6979H18.2731C18.4378 13.6979 18.5958 13.7633 18.7124 13.8797C18.8289 13.9961 18.8945 14.1539 18.8947 14.3186V23.1221Z" fill="white"/>
<path d="M11.0224 20.7472H7.79106V21.4906H11.0224V20.7472Z" fill="white"/>
<path d="M13.3786 22.2982H7.79106V23.0417H13.3786V22.2982Z" fill="white"/>
<path d="M3.42957 1.38123V9.52248H11.2832L13 11.3157L14.7168 9.52166H22.5704V1.38123H3.42957ZM21.6938 8.64579H14.3423L13 10.0482L11.6578 8.64579H4.30625V2.25629H21.6938V8.64579Z" fill="white"/>
<path d="M6.26357 7.65537L7.696 6.90218L9.12844 7.65537L8.85463 6.06043L10.0133 4.93106L8.41182 4.69868L7.696 3.24756L6.98019 4.69868L5.37875 4.93106L6.53738 6.06043L6.26357 7.65537Z" fill="white"/>
<path d="M11.5676 7.65537L13 6.90218L14.4324 7.65537L14.1586 6.06043L15.3173 4.93106L13.7158 4.69868L13 3.24756L12.2842 4.69868L10.6828 4.93106L11.8414 6.06043L11.5676 7.65537Z" fill="white"/>
<path d="M16.8716 7.65537L18.304 6.90218L19.7364 7.65537L19.4626 6.06043L20.6213 4.93106L19.0198 4.69868L18.304 3.24756L17.5874 4.69868L15.9868 4.93106L17.1454 6.06043L16.8716 7.65537Z" fill="white"/>
</svg>
