<svg version="1.1" xmlns="http://www.w3.org/2000/svg" xmlns:xlink="http://www.w3.org/1999/xlink" x="0px" y="0px"
	 viewBox="-287 411 20.9 20" style="enable-background:new -287 411 20.9 20;" xml:space="preserve">
<path style="fill:#fff" d="M-266.1,418.6c-0.1-0.2-0.2-0.3-0.4-0.4l-5.9-1.9l-3.6-5.1c-0.1-0.2-0.3-0.3-0.5-0.3s-0.4,0.1-0.5,0.3l-3.6,5.1
	l-5.9,1.9c-0.2,0.1-0.3,0.2-0.4,0.4c-0.1,0.2,0,0.4,0.1,0.5l3.7,5l-0.1,6.2c0,0.2,0.1,0.4,0.2,0.5c0.2,0.1,0.4,0.1,0.5,0.1l5.9-2
	l5.9,2c0.1,0,0.1,0,0.2,0c0.1,0,0.3,0,0.4-0.1c0.2-0.1,0.3-0.3,0.2-0.5l-0.1-6.2l3.7-5C-266.1,419-266,418.8-266.1,418.6z
	 M-278,420.4l-1.2,3.2c-0.1,0.2-0.3,0.4-0.6,0.4s-0.5-0.2-0.6-0.4l-1.2-3.2c-0.1-0.3,0-0.7,0.4-0.8c0.3-0.1,0.7,0,0.8,0.4l0.6,1.7
	l0.6-1.7c0.1-0.3,0.5-0.5,0.8-0.4C-278,419.7-277.9,420.1-278,420.4z M-275.9,423.4c0,0.3-0.3,0.6-0.6,0.6s-0.6-0.3-0.6-0.6v-3.2
	c0-0.3,0.3-0.6,0.6-0.6c0.3,0,0.6,0.3,0.6,0.6V423.4z M-272.9,422.4h-1v1c0,0.3-0.3,0.6-0.6,0.6c-0.3,0-0.6-0.3-0.6-0.6v-3.2
	c0-0.3,0.3-0.6,0.6-0.6h1.6c0.8,0,1.4,0.6,1.4,1.4C-271.5,421.8-272.1,422.4-272.9,422.4z"/>
</svg>
