<svg width="17" height="16" viewBox="0 0 17 16" fill="none" xmlns="http://www.w3.org/2000/svg">
<path d="M8.5 16C12.9183 16 16.5 12.4183 16.5 8C16.5 3.58172 12.9183 0 8.5 0C4.08172 0 0.5 3.58172 0.5 8C0.5 12.4183 4.08172 16 8.5 16Z" fill="#00EA17"/>
<path d="M6.91717 11.3296L5.04131 9.49737C5.00074 9.45793 4.96848 9.41075 4.94646 9.35863C4.92443 9.30651 4.91309 9.2505 4.91309 9.19392C4.91309 9.13733 4.92443 9.08132 4.94646 9.0292C4.96848 8.97708 5.00074 8.92991 5.04131 8.89047L5.66338 8.28357C5.7468 8.20274 5.8584 8.15755 5.97455 8.15755C6.09071 8.15755 6.20231 8.20274 6.28572 8.28357L7.40241 9.37516L10.5343 4.61378C10.5989 4.5177 10.6983 4.45051 10.8116 4.42642C10.9249 4.40233 11.043 4.42322 11.1412 4.48468L11.8816 4.94978C11.9299 4.97952 11.9718 5.01866 12.0048 5.06489C12.0377 5.11113 12.0611 5.1635 12.0734 5.21892C12.0857 5.27434 12.0868 5.33167 12.0765 5.38751C12.0663 5.44334 12.0449 5.49656 12.0137 5.54399L8.30531 11.1837C8.231 11.2941 8.13339 11.3869 8.01936 11.4554C7.90533 11.524 7.77765 11.5668 7.64531 11.5807C7.51296 11.5946 7.37918 11.5794 7.25338 11.536C7.12758 11.4926 7.01281 11.4222 6.91717 11.3296Z" fill="#100D24"/>
</svg>
