<svg width="18" height="18" viewBox="0 0 18 18" fill="none" xmlns="http://www.w3.org/2000/svg">
<mask id="mask0_239_4067" style="mask-type:alpha" maskUnits="userSpaceOnUse" x="0" y="0" width="18" height="18">
<rect width="18" height="18" fill="#D9D9D9"/>
</mask>
<g mask="url(#mask0_239_4067)">
<path d="M3.6 1.07495H14.4C16.38 1.07495 18 2.69495 18 4.67495C18 6.20495 17.1 7.46495 15.75 8.00495V4.67495C15.75 4.31495 15.57 3.95495 15.39 3.68495C15.21 3.41495 14.76 3.32495 14.4 3.32495H3.6C3.24 3.32495 2.88 3.50495 2.61 3.68495C2.34 3.86495 2.25 4.31495 2.25 4.67495V8.00495C0.9 7.46495 0 6.20495 0 4.67495C0 2.69495 1.62 1.07495 3.6 1.07495Z" fill="white" fill-opacity="0.7"/>
<path fill-rule="evenodd" clip-rule="evenodd" d="M14.4 4.67493V15.4749C14.4 16.4649 13.59 17.2749 12.6 17.2749H5.40001C4.41001 17.2749 3.60001 16.4649 3.60001 15.4749V4.67493H14.4ZM7.65001 11.4249L8.28001 12.0549V8.27493C8.28001 7.91493 8.55001 7.55493 9.00001 7.55493C9.45001 7.55493 9.72001 7.82493 9.72001 8.27493V12.0549L10.35 11.4249C10.62 11.1549 11.07 11.1549 11.34 11.4249C11.61 11.6949 11.61 12.1449 11.34 12.4149L10.17 13.5849C9.54001 14.2149 8.55001 14.2149 7.92001 13.5849L6.75001 12.4149C6.48001 12.1449 6.48001 11.6949 6.75001 11.4249C7.02001 11.1549 7.38001 11.1549 7.65001 11.4249Z" fill="white" fill-opacity="0.7"/>
</g>
</svg>
